<svg xmlns="http://www.w3.org/2000/svg" viewBox="0 0 400 300" width="406" height="306" class="illustration styles_illustrationTablet__1DWOa"><g id="_282_happy_face_outline" data-name="#282_happy_face_outline"><path d="M 286.1 153.6 C 286.1 182.5 271.6 209.5 247.4 225.4 C 244.2 227.5 240.8 229.5 237.3 231.1 C 234.5 232.5 231.7 233.7 228.8 234.7 C 210.2 241.3 189.8 241.3 171.2 234.7 C 168.3 233.7 165.5 232.5 162.7 231.1 C 156.1 228 150 224 144.4 219.3 C 122.2 200.5 111 171.9 114.6 143.1 C 118.1 114.2 136 89.2 162 76.3 h 0 C 182.9 66.1 207 64.7 228.9 72.5 s 0 0 0 0 C 263.2 84.7 286.1 117.2 286.1 153.6 Z" fill="#ffffff"></path><path d="M 200 240.6 C 190.1 240.7 180.2 239 170.9 235.6 C 167.9 234.6 165.1 233.4 162.2 232 C 158.7 230.3 155.3 228.4 152 226.2 C 149.1 224.3 146.4 222.3 143.8 220 C 121.3 201.1 110 172.1 113.6 143 C 117.1 113.8 135.2 88.5 161.5 75.5 l 0.1 0 C 182.7 65.1 207.1 63.7 229.2 71.6 l 0.1 0 h 0 C 260.3 82.7 282.4 110.4 286.4 143.1 C 290.4 175.9 275.5 208 248 226.2 C 242.1 230.1 235.8 233.3 229.1 235.6 C 219.8 239 209.9 240.7 200 240.6 Z M 162.5 77.2 l -0.1 0 C 136.7 89.9 119.1 114.7 115.6 143.2 C 112.1 171.7 123.2 200 145.1 218.5 C 147.6 220.7 150.3 222.7 153.1 224.5 C 156.3 226.6 159.6 228.5 163.1 230.2 C 165.9 231.5 168.7 232.7 171.6 233.7 C 190 240.2 210 240.2 228.4 233.7 C 234.9 231.4 241.1 228.3 246.9 224.5 C 273.8 206.8 288.3 175.3 284.4 143.3 C 280.6 111.4 258.9 84.3 228.6 73.4 l -0.1 0 C 206.9 65.8 183.1 67.1 162.5 77.2 Z" fill="#093f68"></path><rect x="193.7" y="164" width="12.4" height="16.2" fill="#ffbc0e"></rect><path d="M 206.1 181.2 h -12.4 C 193.2 181.2 192.7 180.8 192.7 180.2 V 164 C 192.7 163.4 193.2 163 193.7 163 h 12.4 C 206.7 163 207.1 163.4 207.1 164 v 16.2 C 207.1 180.8 206.7 181.2 206.1 181.2 Z m -11.4 -2 h 10.4 V 165 h -10.4 Z" fill="#093f68"></path><path d="M 151.9 153.4 v 0.1 c -6.9 -1.4 -3.7 7.1 -9.9 4 c -3.1 -1.5 -4.3 6 -7.2 4.2 L 111 119 s -8.5 -6.9 -8.8 -12.9 s 5.2 -11.8 8.1 -11 c 1.8 0.5 8.5 11.1 8.5 11.1 c 1.4 -9.3 3.7 -9.4 5.6 -8 s -0.6 14.9 -0.6 14.9 l 6.8 9.1 l 19.5 26.3 C 151 149.9 151.7 151.6 151.9 153.4 Z" fill="#ffbc0e"></path><path d="M 135.7 163 C 135.2 163 134.7 162.9 134.3 162.6 C 134.2 162.5 134 162.4 134 162.2 l -23.8 -42.6 c -1.2 -1 -8.7 -7.5 -9.1 -13.5 c -0.3 -4.3 2.3 -8.5 4.8 -10.6 c 1.6 -1.3 3.2 -1.8 4.5 -1.4 c 1.5 0.4 5 5.3 7.6 9.3 c 0.8 -4 1.9 -6.1 3.4 -6.7 C 122.7 96.4 123.9 96.6 124.8 97.4 c 2 1.4 0.8 10.1 -0.1 15.5 l 26 35 C 151.9 149.5 152.6 151.3 152.9 153.3 h 0 v 0.1 C 153 153.7 152.8 154 152.6 154.2 C 152.4 154.5 152 154.5 151.7 154.5 c -2.7 -0.6 -3.3 0.5 -4.1 2.1 s -2 3.8 -6 1.9 c -0.7 -0.3 -1.2 0.2 -2.4 1.9 C 138.4 161.5 137.2 163 135.7 163 Z m -0.2 -2.1 c 0.4 0.1 0.8 -0.2 2 -1.8 s 2.6 -3.6 4.9 -2.5 s 2.6 0.5 3.4 -1 c 0.7 -1.4 1.8 -3.4 4.8 -3.3 C 150.4 151.2 149.8 150.1 149.1 149.2 l -26.3 -35.4 C 122.7 113.6 122.6 113.3 122.7 113 c 1.1 -6 1.7 -13 1 -14 c -0.8 -0.5 -1.1 -0.4 -1.3 -0.4 c -0.5 0.2 -1.8 1.4 -2.7 7.8 C 119.7 106.8 119.3 107.1 118.9 107.2 C 118.5 107.3 118.1 107.1 117.9 106.8 c -3 -4.8 -6.9 -10.2 -7.9 -10.7 C 109 96.1 108 96.5 107.3 97.2 C 104.6 99.4 103.1 102.7 103.2 106.1 c 0.4 5.4 8.4 12.1 8.5 12.2 C 111.7 118.3 111.8 118.4 111.9 118.5 Z" fill="#093f68"></path><path d="M 114.7 115.3 C 114.3 115.3 113.9 115.1 113.8 114.7 c -1.2 -2.9 -1.3 -5.2 -0.2 -6.9 c 1.6 -2.5 4.9 -2.6 5.1 -2.6 C 119.2 105.2 119.7 105.6 119.7 106.2 C 119.7 106.8 119.3 107.2 118.7 107.2 s -2.5 0.1 -3.5 1.7 c -0.7 1.1 -0.6 2.8 0.3 5 C 115.8 114.4 115.6 115 115.1 115.2 C 115 115.3 114.8 115.3 114.7 115.3 Z" fill="#093f68"></path><path d="M 248.1 153.4 v 0.1 c 6.9 -1.4 3.7 7.1 9.9 4 c 3.1 -1.5 4.3 6 7.2 4.2 L 289 119 s 8.4 -6.9 8.9 -12.9 s -5.2 -11.8 -8.1 -11 c -1.8 0.5 -8.4 11.1 -8.4 11.1 c -1.4 -9.3 -3.7 -9.4 -5.6 -8 s 0.6 14.9 0.6 14.9 l -6.8 9.1 l -19.5 26.3 C 249 149.9 248.3 151.6 248.1 153.4 Z" fill="#ffbc0e"></path><path d="M 264.3 163 c -1.5 0 -2.6 -1.6 -3.5 -2.7 c -1.2 -1.7 -1.8 -2.2 -2.4 -1.9 c -4 1.9 -5.2 -0.4 -6 -1.9 s -1.4 -2.7 -4.1 -2.1 C 248 154.5 247.7 154.5 247.4 154.2 C 247.2 154 247.1 153.7 247.1 153.4 v -0.1 h 0 C 247.4 151.3 248.1 149.5 249.3 147.9 l 26 -35 c -1 -5.4 -2.1 -14 -0.1 -15.5 C 276.1 96.7 277.3 96.4 278.4 96.8 c 1.6 0.7 2.6 2.8 3.4 6.7 c 2.6 -4 6.1 -8.9 7.6 -9.3 c 1.3 -0.4 2.9 0.1 4.5 1.4 c 2.5 2 5.1 6.2 4.8 10.6 c -0.4 5.9 -7.9 12.5 -9.1 13.5 L 266 162.2 C 265.9 162.4 265.8 162.5 265.7 162.6 C 265.3 162.9 264.8 163 264.3 163 Z m -5.5 -6.7 c 1.6 0 2.8 1.6 3.7 2.8 c 1.1 1.6 1.6 1.9 2 1.8 l 23.7 -42.5 C 288.2 118.4 288.3 118.3 288.4 118.2 c 0.1 -0.1 8.1 -6.7 8.5 -12.2 C 296.9 102.7 295.4 99.4 292.8 97.2 C 292 96.5 291 96.1 290 96.1 c -1 0.4 -4.9 5.9 -7.9 10.6 C 281.9 107.1 281.5 107.3 281.1 107.2 C 280.7 107.1 280.3 106.8 280.3 106.4 c -0.9 -6.3 -2.2 -7.5 -2.7 -7.8 c -0.1 0 -0.5 -0.2 -1.3 0.4 c -0.7 1 -0.1 8 1 13.9 C 277.3 113.2 277.3 113.5 277.1 113.7 l -26.3 35.4 C 250.1 150.1 249.6 151.2 249.3 152.3 c 3 -0.1 4.1 1.9 4.8 3.3 c 0.8 1.6 1.1 2.1 3.4 1 C 257.9 156.4 258.3 156.3 258.8 156.3 Z" fill="#093f68"></path><path d="M 285.3 115.3 C 285.2 115.3 285 115.3 284.9 115.3 C 284.4 115 284.2 114.5 284.4 114 c 0.9 -2.2 1.1 -3.9 0.3 -5 c -1 -1.6 -3.4 -1.7 -3.5 -1.7 C 280.7 107.2 280.3 106.8 280.3 106.2 C 280.3 105.7 280.8 105.2 281.3 105.3 c 0.1 0 3.5 0.1 5.1 2.6 c 1.1 1.7 1 4 -0.2 6.9 C 286.1 115.1 285.7 115.4 285.3 115.3 Z" fill="#093f68"></path><path d="M 237.2 208.9 c 0.1 1.1 0.1 2.3 0.1 3.4 v 18.8 C 234.5 232.5 231.7 233.7 228.8 234.7 C 210.2 241.3 189.8 241.3 171.2 234.7 C 168.3 233.7 165.5 232.5 162.7 231.1 V 212.3 c 0 -1.2 0 -2.4 0.1 -3.6 l -35.1 -49.5 l 25.3 -16.4 s 32.4 31.3 34.9 31.3 h 24.1 c 2.5 0 34.9 -31 34.9 -31 l 25.3 16.4 Z" fill="#0d8060"></path><path d="M 200 240.6 C 190.1 240.7 180.2 239 170.9 235.6 C 167.9 234.6 165.1 233.4 162.2 232 C 161.9 231.9 161.7 231.5 161.7 231.1 V 212.3 c 0 -1 0 -2.2 0.1 -3.3 l -34.9 -49.2 C 126.8 159.6 126.7 159.3 126.8 159 C 126.8 158.8 127 158.5 127.2 158.4 L 152.5 142 C 152.9 141.7 153.4 141.8 153.7 142.1 c 12 11.5 31.7 30 34.3 31 h 24 c 2.6 -0.9 22.3 -19.3 34.3 -30.8 C 246.6 142 247.1 142 247.5 142.2 l 25.3 16.4 C 273.1 158.8 273.2 159 273.3 159.3 C 273.3 159.6 273.3 159.9 273.1 160.1 l -34.8 49.2 c 0.1 1.1 0.1 2.1 0.1 3.1 v 18.8 C 238.4 231.5 238.1 231.9 237.8 232.1 C 235 233.4 232.1 234.6 229.2 235.7 C 219.8 239 209.9 240.7 200 240.6 Z m -36.3 -10.1 C 166.2 231.7 168.9 232.8 171.6 233.8 C 190 240.3 210 240.3 228.4 233.8 C 231.1 232.8 233.8 231.7 236.3 230.5 V 212.3 c 0 -1.1 0 -2.2 -0.1 -3.4 C 236.2 208.7 236.3 208.5 236.4 208.3 l 34.4 -48.6 l -23.8 -15.4 c -12.3 11.8 -32.5 30.8 -35 30.8 H 187.9 c -2.4 0 -22.7 -19.2 -35 -31 l -23.8 15.4 l 34.5 48.6 C 163.8 208.3 163.8 208.5 163.8 208.8 c -0.1 1.3 -0.1 2.4 -0.1 3.6 Z m 73.6 0.6 h 0 Z" fill="#093f68"></path><polygon points="200,207.1 189.9,174.1 210.1,174.1 200,207.1" fill="#093f68"></polygon><path d="M 200 208.1 C 199.5 208.1 199.1 207.8 199 207.3 l -10.1 -33 C 188.8 174 188.9 173.7 189.1 173.5 C 189.2 173.2 189.5 173.1 189.9 173.1 h 20.2 C 210.4 173.1 210.7 173.2 210.9 173.5 C 211.1 173.7 211.1 174 211 174.3 l -10.1 33 C 200.8 207.8 200.4 208 200 208.1 Z m -8.8 -33 L 200 203.6 l 8.8 -28.6 Z" fill="#093f68"></path><circle cx="197.8" cy="126.5" r="52.8" fill="#ffbc0e"></circle><path d="M 197.8 180.3 C 168.1 180.3 144 156.2 144 126.5 C 144 96.8 168.1 72.7 197.8 72.7 C 227.5 72.7 251.6 96.8 251.6 126.5 C 251.5 156.2 227.5 180.2 197.8 180.3 Z m 0 -105.5 C 169.2 74.7 146 97.9 146 126.5 C 146 155.1 169.2 178.3 197.8 178.3 C 226.4 178.3 249.6 155.1 249.6 126.5 C 249.5 97.9 226.4 74.8 197.8 74.7 Z" fill="#093f68"></path><path d="M 175.8 116.9 c 0 -4.7 3.1 -8.5 6.9 -8.5 s 6.9 3.8 6.9 8.5" fill="#ffbc0e"></path><path d="M 189.7 118.4 C 188.8 118.4 188.2 117.7 188.2 116.9 c 0 -3.9 -2.4 -7 -5.4 -7 s -5.4 3.2 -5.4 7 C 177.3 117.7 176.7 118.4 175.8 118.4 C 175 118.4 174.3 117.7 174.3 116.9 c 0 -5.5 3.8 -10 8.4 -10 s 8.4 4.5 8.4 10 C 191.2 117.7 190.5 118.4 189.7 118.4 Z" fill="#093f68"></path><path d="M 206 116.9 c 0 -4.7 3.1 -8.5 6.9 -8.5 s 6.9 3.8 6.9 8.5" fill="#ffbc0e"></path><path d="M 219.8 118.4 C 218.9 118.4 218.3 117.7 218.3 116.9 c 0 -3.9 -2.4 -7 -5.4 -7 s -5.4 3.2 -5.4 7 C 207.5 117.7 206.8 118.4 206 118.4 C 205.1 118.4 204.5 117.7 204.5 116.9 c 0 -5.5 3.8 -10 8.4 -10 s 8.4 4.5 8.4 10 C 221.3 117.7 220.6 118.4 219.8 118.4 Z" fill="#093f68"></path><path d="M 162.5 131.7 C 165.9 148.5 180.7 160.5 197.8 160.5 C 214.9 160.5 229.7 148.5 233.1 131.7" fill="#ffbc0e"></path><path d="M 197.8 162 C 180 162 164.6 149.5 161 132 C 160.8 131.2 161.4 130.4 162.2 130.2 C 163 130 163.8 130.6 163.9 131.4 C 167.2 147.5 181.4 159 197.8 159 C 214.2 159 228.4 147.5 231.7 131.4 C 231.8 130.6 232.6 130 233.4 130.2 C 234.2 130.4 234.8 131.2 234.6 132 C 231 149.5 215.6 162 197.8 162 Z" fill="#093f68"></path><path d="M 200 240.6 C 199.4 240.6 199 240.2 199 239.6 V 207.1 C 199 206.5 199.4 206.1 200 206.1 C 200.6 206.1 201 206.5 201 207.1 v 32.6 C 201 239.9 200.9 240.2 200.7 240.3 C 200.5 240.5 200.3 240.6 200 240.6 Z" fill="#093f68"></path><path d="M 216.6 228.8 C 216.4 228.8 216.2 228.7 216 228.6 l -6.5 -4.2 C 209.3 224.2 209.1 223.9 209.1 223.5 V 210.6 C 209.1 210.1 209.6 209.6 210.1 209.6 H 223 C 223.6 209.6 224 210.1 224 210.6 v 12.9 C 224 223.9 223.8 224.2 223.6 224.4 l -6.5 4.2 C 216.9 228.7 216.7 228.8 216.6 228.8 Z M 211.1 223 l 5.4 3.6 L 222 223 V 211.6 H 211.1 Z m 11.9 0.5 h 0 Z" fill="#093f68"></path></g></svg>